<svg xmlns="http://www.w3.org/2000/svg" xmlns:svg="http://www.w3.org/2000/svg" id="svg2" width="500" height="500" version="1.1"><title id="title2995">Java Graticule 3D</title><metadata id="metadata7"/><path id="path5370" d="m 424.28742,-31.83738 c 0,-2.30461 38.07737,-174.97319 39.12352,-177.41264 0.61512,-1.43435 8.45641,34.18751 19.11972,86.85817 9.94234,49.10932 17.79875,89.5492 17.4587,89.86639 -0.34004,0.31715 -5.19321,-0.98921 -10.78484,-2.90304 -18.80418,-6.43604 -38.84392,-5.84686 -57.25204,1.68328 -4.21578,1.72455 -7.66506,2.58307 -7.66506,1.90784 z" style="fill:none;stroke:none"/><path id="path5479" d="m 424.2854,-31.69055 c 0.008,-2.93422 37.46262,-179.10293 38.23146,-179.82007 0.4339,-0.40471 0.78894,0.006 0.78894,0.91124 0,0.90591 8.13005,40.06774 18.06677,87.02629 9.93672,46.95851 18.06672,85.7364 18.06672,86.17305 0,0.43665 -1.78858,1.65156 -3.97467,2.69978 -3.43757,1.64835 -5.34185,1.63576 -14.09205,-0.0932 -13.37843,-2.64338 -37.37142,-1.69088 -48.78026,1.93648 -5.25628,1.67124 -8.30932,2.09991 -8.30691,1.16642 l 0,-5e-5 z" style="fill:none;stroke:none"/><g id="JAG3D" transform="matrix(1.4705882,0,0,1.4705882,-44.117649,-44.1177)"><g id="hbar" transform="translate(-50,-602.36211)"><rect id="rect5485-9" width="20" height="340" x="792.362" y="-420" transform="matrix(0,1,-1,0,0,0)" style="fill:#f5f5f5;fill-opacity:1;stroke:none"/></g><rect id="vbar" width="20" height="340" x="190" y="30" style="fill:#f5f5f5;fill-opacity:1;stroke:none"/><path id="ocircle" d="m 359.96581,199.85762 a 159.96587,159.96608 0 1 1 -7e-5,-0.0585 z" style="fill:#be0000;fill-opacity:1;stroke:#f5f5f5;stroke-width:15;stroke-miterlimit:4;stroke-opacity:1;stroke-dasharray:none"/><path id="icircle" d="m 248.45699,189.27636 a 49.629399,49.629466 0 1 1 -0.0436,-0.19527 z" style="fill:#a00;fill-opacity:1;fill-rule:evenodd;stroke:#f5f5f5;stroke-width:10;stroke-linecap:round;stroke-linejoin:round;stroke-miterlimit:4;stroke-opacity:1;stroke-dasharray:none"/><path id="narrow" d="m 180.52034,149.47973 19.47965,-98.95931 19.47966,98.95931 c -12.83939,-5.17686 -27.57391,-5.6543 -38.95931,0 z" style="fill:#f5f5f5;fill-opacity:1;stroke:#f5f5f5;stroke-width:1.04068577px;stroke-linecap:butt;stroke-linejoin:miter;stroke-opacity:1"/><path id="earrow" d="m 250.52034,180.52042 98.95931,19.47965 -98.95931,19.47966 c 5.17686,-12.83939 5.6543,-27.57391 0,-38.95931 z" style="fill:#f5f5f5;fill-opacity:1;stroke:#f5f5f5;stroke-width:1.04068577px;stroke-linecap:butt;stroke-linejoin:miter;stroke-opacity:1"/><path id="sarrow" d="M 219.47965,250.52042 200,349.47969 180.52034,250.52042 c 12.83939,5.17686 27.57391,5.6543 38.95931,0 z" style="fill:#f5f5f5;fill-opacity:1;stroke:#f5f5f5;stroke-width:1.04068577px;stroke-linecap:butt;stroke-linejoin:miter;stroke-opacity:1"/><path id="warrow" d="m 149.47965,219.47973 -98.95931,-19.47965 98.95931,-19.47966 c -5.17686,12.83939 -5.6543,27.57391 0,38.95931 z" style="fill:#f5f5f5;fill-opacity:1;stroke:#f5f5f5;stroke-width:1.04068577px;stroke-linecap:butt;stroke-linejoin:miter;stroke-opacity:1"/><path id="nearrow" d="M 182.96656,177.39578 296.54108,103.459 219.33592,218.32505 c -21.19004,26.96704 -67.63794,-10.91113 -36.36936,-40.92927 z" style="fill:#f5f5f5;fill-opacity:1;stroke:#f5f5f5;stroke-width:.91783923px;stroke-linecap:butt;stroke-linejoin:miter;stroke-opacity:1"/></g></svg>